<?xml version="1.0" standalone="no"?>
<!DOCTYPE svg PUBLIC "-//W3C//DTD SVG 20010904//EN"
 "http://www.w3.org/TR/2001/REC-SVG-20010904/DTD/svg10.dtd">
<svg version="1.0" xmlns="http://www.w3.org/2000/svg"
 width="64.000000pt" height="64.000000pt" viewBox="0 0 64.000000 64.000000"
 preserveAspectRatio="xMidYMid meet">

<g transform="translate(0.000000,64.000000) scale(0.100000,-0.100000)"
fill="#000000" stroke="none">
<path d="M210 621 c-71 -23 -122 -66 -156 -131 -24 -47 -25 -153 -1 -197 17
-32 17 -34 -13 -94 -17 -34 -29 -63 -27 -66 3 -2 32 10 66 27 60 30 62 30 94
13 43 -24 160 -24 203 -1 41 22 90 71 112 112 23 44 23 159 -2 206 -26 49 -64
88 -110 112 -43 22 -128 32 -166 19z m161 -39 c133 -69 158 -236 50 -343 -69
-70 -155 -87 -239 -49 -43 20 -44 20 -84 -1 -22 -11 -42 -18 -45 -16 -2 3 5
23 16 45 l21 40 -21 48 c-46 102 -2 223 100 276 71 37 131 37 202 0z"/>
<path d="M134 308 c13 -65 76 -118 141 -118 60 0 135 71 135 128 0 22 -1 22
-141 22 l-141 0 6 -32z m256 5 c0 -22 -44 -75 -74 -89 -48 -24 -97 -12 -135
32 -53 60 -47 64 89 64 66 0 120 -3 120 -7z"/>
</g>
</svg>
