<?xml version="1.0" standalone="no"?>
<!DOCTYPE svg PUBLIC "-//W3C//DTD SVG 1.0//EN" "http://www.w3.org/TR/2001/REC-SVG-20010904/DTD/svg10.dtd">
<svg xmlns="http://www.w3.org/2000/svg" xmlns:xlink="http://www.w3.org/1999/xlink" id="body_1" width="24" height="24">

<g transform="matrix(0.09375 0 0 0.09375 0 0)">
	<g transform="matrix(0.72 0 0 0.72 128 128)">
		<g transform="matrix(3.89 0 0 3.89 -175.05 -175.05)">
            <path transform="matrix(1 0 0 1 0 0)"  d="M88 45C 88 56.874123 83.801865 67.00932 75.405594 75.405594C 67.00932 83.801865 56.874123 88 45 88C 33.125877 88 22.99068 83.801865 14.594408 75.405594C 6.1981363 67.00932 2 56.874123 2 45C 2 33.125877 6.1981363 22.99068 14.594408 14.594408C 22.99068 6.1981363 33.125877 2 45 2C 56.874123 2 67.00932 6.1981363 75.405594 14.594408C 83.801865 22.99068 88 33.125877 88 45C 88 45.50038 87.99127 46.000607 87.9738 46.50068" stroke="none" fill="#FFCA28" fill-rule="nonzero" />
            <path transform="matrix(1 0 0 1 0 0)"  d="M45 90C 20.187 90 0 69.813 0 45C 0 20.187 20.187 0 45 0C 69.813 0 90 20.187 90 45C 90 69.813 69.813 90 45 90zM45 4C 22.393 4 4 22.393 4 45C 4 67.607 22.393 86 45 86C 67.607 86 86 67.607 86 45C 86 22.392998 67.607 4 45 4z" stroke="none" fill="#000000" fill-rule="nonzero" />
            <path transform="matrix(1 0 0 1 0 0)"  d="M63.085 63.621L26.915 63.621C 25.811 63.621 24.915 62.725 24.915 61.621C 24.915 60.517 25.811 59.621 26.915 59.621L26.915 59.621L63.085 59.621C 64.188995 59.621 65.085 60.517 65.085 61.621C 65.085 62.725 64.189 63.621 63.085 63.621z" stroke="none" fill="#000000" fill-rule="nonzero" />
            <path transform="matrix(1 0 0 1 0 0)"  d="M25.238 42.268C 24.558 42.268 23.895 41.921 23.52 41.295002C 22.953001 40.347 23.261 39.119003 24.208 38.552002L24.208 38.552002L31.632 34.108L24.208 29.664001C 23.26 29.097002 22.952 27.869001 23.52 26.921001C 24.086 25.973001 25.314001 25.663002 26.263 26.233002L26.263 26.233002L36.554 32.393C 37.158 32.754 37.527 33.406002 37.527 34.109C 37.527 34.812 37.158 35.464 36.554 35.825L36.554 35.825L26.263 41.985C 25.941 42.176 25.587 42.268 25.238 42.268z" stroke="none" fill="#000000" fill-rule="nonzero" />
            <path transform="matrix(1 0 0 1 0 0)"  d="M64.762 42.268C 64.412 42.268 64.059 42.176003 63.737 41.983L63.737 41.983L53.447 35.823C 52.843 35.462 52.474 34.81 52.474 34.107002C 52.474 33.404003 52.843 32.752003 53.447 32.391003L53.447 32.391003L63.737 26.231003C 64.687 25.664003 65.913 25.972002 66.479996 26.919003C 67.047 27.867002 66.739 29.095003 65.79199 29.662003L65.79199 29.662003L58.367992 34.106003L65.79199 38.550003C 66.73899 39.117004 67.04799 40.345 66.479996 41.293003C 66.105 41.92 65.442 42.268 64.762 42.268z" stroke="none" fill="#000000" fill-rule="nonzero" />
		</g>
	</g>
</g>
</svg>