<?xml version="1.0" standalone="no"?>
<!DOCTYPE svg PUBLIC "-//W3C//DTD SVG 1.0//EN" "http://www.w3.org/TR/2001/REC-SVG-20010904/DTD/svg10.dtd">
<svg xmlns="http://www.w3.org/2000/svg" xmlns:xlink="http://www.w3.org/1999/xlink" id="body_1" width="24" height="24">

<g transform="matrix(0.09375 0 0 0.09375 0 0)">
	<g transform="matrix(0.72 0 0 0.72 128 128)">
		<g transform="matrix(3.89 0 0 3.89 -175.05 -175.05)">
            <path transform="matrix(1 0 0 1 0 0)"  d="M88 45C 88 56.874123 83.801865 67.00932 75.405594 75.405594C 67.00932 83.801865 56.874123 88 45 88C 33.125877 88 22.99068 83.801865 14.594408 75.405594C 6.1981363 67.00932 2 56.874123 2 45C 2 33.125877 6.1981363 22.99068 14.594408 14.594408C 22.99068 6.1981363 33.125877 2 45 2C 56.874123 2 67.00932 6.1981363 75.405594 14.594408C 83.801865 22.99068 88 33.125877 88 45C 88 45.50038 87.99127 46.000607 87.9738 46.50068" stroke="none" fill="#FFCA28" fill-rule="nonzero" />
            <path transform="matrix(1 0 0 1 0 0)"  d="M45 90C 20.187 90 0 69.813 0 45C 0 20.187 20.187 0 45 0C 69.813 0 90 20.187 90 45C 90 69.813 69.813 90 45 90zM45 4C 22.393 4 4 22.393 4 45C 4 67.607 22.393 86 45 86C 67.607 86 86 67.607 86 45C 86 22.392998 67.607 4 45 4z" stroke="none" fill="#000000" fill-rule="nonzero" />
            <path transform="matrix(1 0 0 1 0 0)"  d="M36 35.55C 36 36.93071 35.511845 38.109222 34.535534 39.085533C 33.559223 40.061844 32.380714 40.55 31 40.55C 29.61929 40.55 28.440777 40.061844 27.464466 39.085533C 26.488155 38.109222 26 36.93071 26 35.55C 26 34.16929 26.488155 32.990776 27.464466 32.014465C 28.440777 31.038155 29.61929 30.55 31 30.55C 32.380714 30.55 33.559223 31.038155 34.535534 32.014465C 35.511845 32.990776 36 34.16929 36 35.55C 36 35.608185 35.998985 35.66635 35.996956 35.724495" stroke="none" fill="#000000" fill-rule="nonzero" />
            <path transform="matrix(1 0 0 1 0 0)"  d="M64 35.55C 64 36.93071 63.51185 38.109222 62.535534 39.085533C 61.559227 40.061844 60.380714 40.55 59 40.55C 57.61929 40.55 56.440777 40.061844 55.464466 39.085533C 54.488155 38.109222 54 36.93071 54 35.55C 54 34.16929 54.488155 32.990776 55.464466 32.014465C 56.440777 31.038155 57.61929 30.55 59 30.55C 60.380714 30.55 61.559227 31.038155 62.535534 32.014465C 63.51185 32.990776 64 34.16929 64 35.55C 64 35.608185 63.998985 35.66635 63.996956 35.724495" stroke="none" fill="#000000" fill-rule="nonzero" />
            <path transform="matrix(1 0 0 1 0 0)"  d="M63.087 69.345C 62.440002 69.345 61.804 69.032 61.419003 68.451004C 57.748 62.922005 51.61 59.621002 45 59.621002C 38.39 59.621002 32.251 62.922 28.582 68.451004C 27.971 69.371 26.730001 69.624 25.810001 69.011C 24.890001 68.401 24.639002 67.159004 25.249 66.239C 29.662 59.59 37.046 55.621 45 55.621C 52.954 55.621 60.338 59.59 64.751 66.238C 65.362 67.159 65.111 68.4 64.191 69.01C 63.851 69.237 63.467 69.345 63.087 69.345z" stroke="none" fill="#000000" fill-rule="nonzero" />
		</g>
	</g>
</g>
</svg>