<?xml version="1.0" standalone="no"?>
<!DOCTYPE svg PUBLIC "-//W3C//DTD SVG 1.0//EN" "http://www.w3.org/TR/2001/REC-SVG-20010904/DTD/svg10.dtd">
<svg xmlns="http://www.w3.org/2000/svg" xmlns:xlink="http://www.w3.org/1999/xlink" id="body_1" width="23" height="23">

<g transform="matrix(0.08984375 0 0 0.08984375 0 0)">
	<g transform="matrix(0.72 0 0 0.72 128 128)">
		<g transform="matrix(3.89 0 0 3.89 -175.05 -175.05)">
            <path transform="matrix(1 0 0 1 0 0)"  d="M88 45C 88 56.874123 83.801865 67.00932 75.405594 75.405594C 67.00932 83.801865 56.874123 88 45 88C 33.125877 88 22.99068 83.801865 14.594408 75.405594C 6.1981363 67.00932 2 56.874123 2 45C 2 33.125877 6.1981363 22.99068 14.594408 14.594408C 22.99068 6.1981363 33.125877 2 45 2C 56.874123 2 67.00932 6.1981363 75.405594 14.594408C 83.801865 22.99068 88 33.125877 88 45C 88 45.50038 87.99127 46.000607 87.9738 46.50068" stroke="none" fill="#FFCA28" fill-rule="nonzero" />
            <path transform="matrix(1 0 0 1 0 0)"  d="M68.79 50.494C 68.79 63.633 58.139 74.284 45 74.284C 31.861 74.284 21.21 63.632996 21.21 50.493996L21.21 50.493996L68.79 50.493996L68.79 50.494z" stroke="none" fill="#FFFFFF" fill-rule="nonzero" />
            <path transform="matrix(1 0 0 1 0 0)"  d="M45 90C 20.187 90 0 69.813 0 45C 0 20.187 20.187 0 45 0C 69.813 0 90 20.187 90 45C 90 69.813 69.813 90 45 90zM45 4C 22.393 4 4 22.393 4 45C 4 67.607 22.393 86 45 86C 67.607 86 86 67.607 86 45C 86 22.392998 67.607 4 45 4z" stroke="none" fill="#000000" fill-rule="nonzero" />
            <path transform="matrix(1 0 0 1 0 0)"  d="M69.835 41.032L54.855 41.032C 54.008 41.032 53.253 40.499 52.97 39.7C 52.687004 38.901 52.937 38.012 53.595 37.478L53.595 37.478L67.101 26.521C 67.957 25.824 69.218994 25.957 69.914 26.814C 70.61 27.671999 70.479004 28.932 69.621 29.626999L69.621 29.626999L60.495003 37.03L69.83501 37.03C 70.939 37.03 71.83501 37.926 71.83501 39.03C 71.83501 40.134 70.939 41.032 69.835 41.032z" stroke="none" fill="#000000" fill-rule="nonzero" />
            <path transform="matrix(1 0 0 1 0 0)"  d="M35.145 41.032L20.165 41.032C 19.061 41.032 18.165 40.136 18.165 39.032C 18.165 37.928 19.061 37.032 20.165 37.032L20.165 37.032L29.505001 37.032L20.379002 29.629002C 19.522001 28.933002 19.390001 27.673002 20.086002 26.816002C 20.782001 25.958002 22.042002 25.827002 22.899002 26.523003L22.899002 26.523003L36.404003 37.480003C 37.061005 38.014004 37.312004 38.903004 37.029003 39.702003C 36.747 40.499 35.991 41.032 35.145 41.032z" stroke="none" fill="#000000" fill-rule="nonzero" />
            <path transform="matrix(1 0 0 1 0 0)"  d="M45 76.284C 30.779 76.284 19.21 64.715 19.21 50.493996C 19.21 49.389996 20.105999 48.493996 21.21 48.493996L21.21 48.493996L68.79 48.493996C 69.894 48.493996 70.79 49.389996 70.79 50.493996C 70.79 64.715 59.221 76.284 45 76.284zM23.301 52.494C 24.313 63.576 33.659 72.284 45 72.284C 56.341 72.284 65.687 63.575996 66.699 52.493996L66.699 52.493996L23.301 52.493996z" stroke="none" fill="#000000" fill-rule="nonzero" />
		</g>
	</g>
</g>
</svg>