<?xml version="1.0" standalone="no"?>
<!DOCTYPE svg PUBLIC "-//W3C//DTD SVG 1.0//EN" "http://www.w3.org/TR/2001/REC-SVG-20010904/DTD/svg10.dtd">
<svg xmlns="http://www.w3.org/2000/svg" xmlns:xlink="http://www.w3.org/1999/xlink" id="body_1" width="24" height="24">

<g transform="matrix(0.09375 0 0 0.09375 0 0)">
	<g transform="matrix(0.72 0 0 0.72 128 128)">
		<g transform="matrix(3.89 0 0 3.89 -175.05 -175.05)">
            <path transform="matrix(1 0 0 1 0 0)"  d="M87.96001 45.005C 87.96001 56.8667 83.766266 66.99129 75.37877 75.37877C 66.99129 83.766266 56.8667 87.96001 45.005 87.96001C 33.143303 87.96001 23.018715 83.766266 14.631229 75.37877C 6.243743 66.99129 2.0499992 56.8667 2.0499992 45.005C 2.0499992 33.143303 6.243743 23.018715 14.631229 14.631229C 23.018715 6.243743 33.143303 2.0499992 45.005 2.0499992C 56.8667 2.0499992 66.99129 6.243743 75.37877 14.631229C 83.766266 23.018715 87.96001 33.143303 87.96001 45.005C 87.96001 45.504856 87.95129 46.00456 87.93384 46.50411" stroke="none" fill="#FFD241" fill-rule="nonzero" />
            <path transform="matrix(1 0 0 1 0 0)"  d="M45 90C 20.187 90 0 69.813 0 45C 0 20.186996 20.187 0 45 0C 69.813 0 90 20.187 90 45C 90 69.813 69.813 90 45 90zM45 4.091C 22.443 4.091 4.091 22.443 4.091 45C 4.091 67.557 22.442999 85.909 45 85.909C 67.557 85.909 85.909 67.557 85.909 44.999996C 85.909 22.443 67.557 4.091 45 4.091z" stroke="none" fill="#000000" fill-rule="nonzero" />
            <path transform="matrix(1 0 0 1 0 0)"  d="M63.241 71.329C 62.786 71.329 62.327 71.178 61.948 70.868004C 57.179 66.97 51.159 64.822 45 64.822C 38.841 64.822 32.822 66.969 28.052 70.867C 27.178 71.58199 25.889 71.451 25.174 70.576996C 24.459 69.701996 24.589 68.413994 25.464 67.699C 30.961 63.206 37.9 60.731 45 60.731C 52.100998 60.731 59.04 63.205997 64.537 67.699C 65.412 68.413994 65.542 69.702995 64.827 70.576996C 64.422 71.073 63.834 71.329 63.241 71.329z" stroke="none" fill="#000000" fill-rule="nonzero" />
            <path transform="matrix(1 0 0 1 0 0)"  d="M24.288 46.55C 24.076 46.55 23.865 46.545998 23.653 46.537C 22.524 46.493 21.644 45.543 21.688 44.413998C 21.732 43.284996 22.699999 42.416996 23.810999 42.448997C 26.703999 42.564 29.438 41.701996 31.741999 39.964996C 34.045 38.226997 35.625 35.826996 36.309 33.022995C 36.577 31.924995 37.677998 31.249994 38.781 31.520994C 39.878 31.788994 40.551 32.895996 40.282997 33.992992C 39.385 37.66999 37.226997 40.950993 34.204998 43.23099C 31.353 45.383 27.853 46.55 24.288 46.55z" stroke="none" fill="#000000" fill-rule="nonzero" />
            <path transform="matrix(1 0 0 1 0 0)"  d="M65.712 46.55C 62.145996 46.55 58.647 45.383 55.794 43.231C 52.773 40.952 50.613 37.670998 49.716 33.993C 49.447 32.896 50.119 31.789 51.217 31.521C 52.312 31.253 53.420998 31.925 53.689 33.023C 54.375 35.828 55.954 38.227997 58.257 39.965C 60.56 41.703 63.312 42.565 66.187 42.449C 67.367 42.412003 68.267 43.285 68.31 44.414C 68.354 45.543003 67.475 46.493 66.346 46.537003C 66.136 46.546 65.924 46.55 65.712 46.55z" stroke="none" fill="#000000" fill-rule="nonzero" />
		</g>
	</g>
</g>
</svg>